<svg width="36" height="37" viewBox="0 0 36 37" fill="none" xmlns="http://www.w3.org/2000/svg">
<g id="icn-facebook.svg" clip-path="url(#clip0_1_448)">
<g id="Group" opacity="0.7">
<path id="Vector" fill-rule="evenodd" clip-rule="evenodd" d="M35.027 18.4998C35.027 28.1722 27.1858 36.0134 17.5135 36.0134C7.84119 36.0134 0 28.1722 0 18.4998C0 8.82752 7.84119 0.986328 17.5135 0.986328C27.1858 0.986328 35.027 8.82752 35.027 18.4998Z" fill="#6B7684"/>
<path id="Vector_2" fill-rule="evenodd" clip-rule="evenodd" d="M21.8102 20.0392L22.3191 16.7262H19.1404V14.5759C19.1404 13.6701 19.584 12.7856 21.0085 12.7856H22.4533V9.96597C22.4533 9.96597 21.1418 9.74219 19.8876 9.74219C17.2703 9.74219 15.5579 11.3281 15.5579 14.2013V16.7262H12.6487V20.0392H15.5579V28.1859H19.1404V20.0392H21.8102Z" fill="white"/>
</g>
</g>
<defs>
<clipPath id="clip0_1_448">
<rect width="36" height="35.027" fill="white" transform="translate(0 0.986328)"/>
</clipPath>
</defs>
</svg>
