<svg width="36" height="37" viewBox="0 0 36 37" fill="none" xmlns="http://www.w3.org/2000/svg">
<g id="icn-instagram.svg" clip-path="url(#clip0_1_472)">
<g id="Group" opacity="0.7">
<path id="Vector" fill-rule="evenodd" clip-rule="evenodd" d="M35.027 18.4998C35.027 28.1722 27.1858 36.0134 17.5135 36.0134C7.84119 36.0134 0 28.1722 0 18.4998C0 8.82752 7.84119 0.986328 17.5135 0.986328C27.1858 0.986328 35.027 8.82752 35.027 18.4998Z" fill="#6B7684"/>
<path id="Vector_2" fill-rule="evenodd" clip-rule="evenodd" d="M17.5134 9.49023C15.0664 9.49023 14.7599 9.49996 13.7986 9.54472C12.8402 9.5885 12.1844 9.74029 11.6113 9.9631C11.0198 10.1937 10.5167 10.5021 10.0157 11.0022C9.51555 11.5033 9.20712 12.0063 8.97653 12.5979C8.75372 13.172 8.60193 13.8268 8.55815 14.7852C8.51436 15.7465 8.50366 16.0529 8.50366 18.5C8.50366 20.947 8.51339 21.2535 8.55815 22.2148C8.60193 23.1741 8.75372 23.8289 8.97653 24.402C9.20712 24.9946 9.51555 25.4966 10.0157 25.9977C10.5167 26.4988 11.0198 26.8062 11.6113 27.0368C12.1854 27.2596 12.8402 27.4114 13.7986 27.4552C14.7599 27.499 15.0664 27.5097 17.5134 27.5097C19.9604 27.5097 20.2669 27.5 21.2282 27.4552C22.1866 27.4114 22.8424 27.2596 23.4154 27.0368C24.007 26.8062 24.51 26.4988 25.0111 25.9977C25.5112 25.4966 25.8197 24.9946 26.0503 24.402C26.2731 23.828 26.4249 23.1741 26.4686 22.2148C26.5124 21.2535 26.5231 20.947 26.5231 18.5C26.5231 16.0529 26.5134 15.7465 26.4686 14.7852C26.4249 13.8268 26.2731 13.171 26.0503 12.5979C25.8197 12.0063 25.5112 11.5033 25.0111 11.0022C24.51 10.5021 24.007 10.1937 23.4154 9.9631C22.8414 9.74029 22.1866 9.5885 21.2282 9.54472C20.2669 9.49996 19.9604 9.49023 17.5134 9.49023ZM17.5134 11.1141C19.9186 11.1141 20.2037 11.1239 21.1543 11.1667C22.0329 11.2056 22.5096 11.3535 22.8278 11.4761C23.2471 11.6395 23.5478 11.8351 23.863 12.1503C24.1783 12.4656 24.3738 12.7662 24.5373 13.1866C24.6599 13.5037 24.8068 13.9805 24.8467 14.8601C24.8905 15.8097 24.8992 16.0948 24.8992 18.5C24.8992 20.9061 24.8905 21.1902 24.8467 22.1408C24.8078 23.0194 24.6599 23.4962 24.5373 23.8143C24.3738 24.2337 24.1773 24.5343 23.863 24.8496C23.5478 25.1648 23.2471 25.3604 22.8268 25.5239C22.5096 25.6465 22.0329 25.7934 21.1533 25.8333C20.2046 25.877 19.9196 25.8858 17.5134 25.8858C15.1072 25.8858 14.8221 25.877 13.8725 25.8333C12.9939 25.7943 12.5172 25.6465 12.199 25.5239C11.7797 25.3604 11.479 25.1639 11.1638 24.8496C10.8485 24.5343 10.653 24.2337 10.4895 23.8134C10.3669 23.4962 10.22 23.0194 10.1801 22.1399C10.1363 21.1902 10.1276 20.9061 10.1276 18.5C10.1276 16.0948 10.1363 15.8097 10.1801 14.8591C10.219 13.9805 10.3669 13.5037 10.4895 13.1856C10.653 12.7662 10.8495 12.4656 11.1638 12.1503C11.479 11.8351 11.7797 11.6395 12.2 11.4761C12.5172 11.3535 12.9939 11.2066 13.8735 11.1667C14.8231 11.1229 15.1082 11.1141 17.5134 11.1141Z" fill="#F1F1F2"/>
<path id="Vector_3" fill-rule="evenodd" clip-rule="evenodd" d="M17.5134 21.5033C15.8545 21.5033 14.5099 20.1587 14.5099 18.4998C14.5099 16.8408 15.8545 15.4962 17.5134 15.4962C19.1724 15.4962 20.517 16.8408 20.517 18.4998C20.517 20.1587 19.1724 21.5033 17.5134 21.5033ZM17.5134 13.8733C14.9584 13.8733 12.887 15.9447 12.887 18.4998C12.887 21.0548 14.9584 23.1262 17.5134 23.1262C20.0685 23.1262 22.1399 21.0548 22.1399 18.4998C22.1399 15.9447 20.0685 13.8733 17.5134 13.8733ZM23.4038 13.6903C23.4038 14.2878 22.9203 14.7713 22.3229 14.7713C21.7255 14.7713 21.2419 14.2878 21.2419 13.6913C21.2419 13.0929 21.7254 12.6094 22.3219 12.6094C22.9203 12.6094 23.4038 13.0929 23.4038 13.6903Z" fill="#F1F1F2"/>
</g>
</g>
<defs>
<clipPath id="clip0_1_472">
<rect width="36" height="35.027" fill="white" transform="translate(0 0.986328)"/>
</clipPath>
</defs>
</svg>
