<svg width="36" height="37" viewBox="0 0 36 37" fill="none" xmlns="http://www.w3.org/2000/svg">
<g id="icn-blog.svg" clip-path="url(#clip0_1_454)">
<g id="Group" opacity="0.7">
<path id="Vector" fill-rule="evenodd" clip-rule="evenodd" d="M35.027 18.4998C35.027 28.1722 27.1858 36.0134 17.5135 36.0134C7.84119 36.0134 0 28.1722 0 18.4998C0 8.82752 7.84119 0.986328 17.5135 0.986328C27.1858 0.986328 35.027 8.82752 35.027 18.4998Z" fill="#6B7684"/>
<path id="Vector_2" fill-rule="evenodd" clip-rule="evenodd" d="M15.8079 19.9129V22.7793H18.29C19.6628 22.7793 20.269 22.2539 20.269 21.3257C20.269 20.3975 19.764 19.9129 18.2296 19.9129H15.8079ZM15.8079 14.2016V16.8247H18.3707C19.6229 16.8247 20.087 16.2604 20.087 15.4723C20.087 14.6647 19.5821 14.2006 18.3512 14.2006L15.8079 14.2016ZM12.3762 11.1328H18.2092C21.7625 11.1328 23.579 12.5855 23.579 15.3506C23.579 16.6836 23.0342 17.6323 22.0855 18.2375C23.2151 18.8835 23.8612 19.9129 23.8612 21.4074C23.8612 24.4752 21.7421 25.8675 18.2092 25.8675H12.3762V11.1328Z" fill="#F1F1F2"/>
</g>
</g>
<defs>
<clipPath id="clip0_1_454">
<rect width="36" height="35.027" fill="white" transform="translate(0 0.986328)"/>
</clipPath>
</defs>
</svg>
