<svg width="36" height="37" viewBox="0 0 36 37" fill="none" xmlns="http://www.w3.org/2000/svg">
<g id="icn-twitter.svg" clip-path="url(#clip0_1_466)">
<g id="Group" opacity="0.7">
<path id="Vector" fill-rule="evenodd" clip-rule="evenodd" d="M35.027 18.4998C35.027 28.1722 27.1858 36.0134 17.5135 36.0134C7.84119 36.0134 0 28.1722 0 18.4998C0 8.82752 7.84119 0.986328 17.5135 0.986328C27.1858 0.986328 35.027 8.82752 35.027 18.4998Z" fill="#6B7684"/>
<path id="Vector_2" fill-rule="evenodd" clip-rule="evenodd" d="M14.6764 26.9345C21.6954 26.9345 25.5338 21.119 25.5338 16.0771C25.5338 15.9117 25.5299 15.7472 25.5221 15.5838C26.2674 15.0447 26.9154 14.3734 27.4263 13.6086C26.7423 13.9122 26.0057 14.1165 25.2351 14.209C26.0232 13.7361 26.6274 12.9888 26.9125 12.0976C26.175 12.5354 25.3587 12.8526 24.4898 13.0239C23.7932 12.2825 22.8017 11.8184 21.7042 11.8184C19.5967 11.8184 17.8882 13.5279 17.8882 15.6344C17.8882 15.934 17.9213 16.225 17.9865 16.5042C14.8156 16.3446 12.0027 14.8258 10.1219 12.517C9.79307 13.0813 9.60431 13.7361 9.60431 14.4357C9.60431 15.7589 10.2786 16.9274 11.3031 17.6114C10.6765 17.592 10.0889 17.4207 9.57415 17.1347V17.1833C9.57415 19.032 10.8896 20.5741 12.6351 20.9244C12.314 21.012 11.9774 21.0587 11.6291 21.0587C11.3829 21.0587 11.1445 21.0334 10.912 20.9896C11.3985 22.5055 12.8064 23.6088 14.477 23.64C13.1703 24.6635 11.525 25.2726 9.73761 25.2726C9.42918 25.2726 9.12561 25.2551 8.8269 25.2201C10.516 26.303 12.5213 26.9345 14.6764 26.9345Z" fill="white"/>
</g>
</g>
<defs>
<clipPath id="clip0_1_466">
<rect width="36" height="35.027" fill="white" transform="translate(0 0.986328)"/>
</clipPath>
</defs>
</svg>
