<svg width="24" height="25" viewBox="0 0 24 25" fill="none" xmlns="http://www.w3.org/2000/svg">
<g id="SVG" clip-path="url(#clip0_1_277)">
<path id="Vector" d="M11.6 1.32988L2.89995 4.82988C2.49995 5.02988 2.19995 5.42988 2.19995 5.82988V14.1299C2.19995 17.9299 6.99995 21.6299 11.5 23.9299C11.8 24.0299 12.1 24.0299 12.4 23.9299C16.9 21.6299 21.7 17.9299 21.7 14.1299V5.82988C21.7 5.42988 21.5 5.02988 21.1 4.92988L12.4 1.32988C12.1 1.22988 11.8 1.22988 11.6 1.32988Z" fill="#007FF7"/>
<path id="Vector_2" d="M10.9 16.4301C10.6 16.4301 10.4 16.3301 10.2 16.1301L6.8 12.7301C6.4 12.3301 6.4 11.7301 6.8 11.3301C7.2 10.9301 7.8 10.9301 8.2 11.3301L10.9 14.0301L15.8 9.13008C16.2 8.73008 16.8 8.73008 17.2 9.13008C17.6 9.53008 17.6 10.1301 17.2 10.5301L11.6 16.1301C11.4 16.3301 11.2 16.4301 10.9 16.4301Z" fill="white"/>
</g>
<defs>
<clipPath id="clip0_1_277">
<rect width="24" height="24" fill="white" transform="translate(0 0.629883)"/>
</clipPath>
</defs>
</svg>
