<svg width="16" height="17" viewBox="0 0 16 17" fill="none" xmlns="http://www.w3.org/2000/svg">
<g id="SVG" clip-path="url(#clip0_1_54)">
<g id="Group">
<path id="Vector" fill-rule="evenodd" clip-rule="evenodd" d="M8.00004 2.13656C4.53337 2.13656 1.66671 5.00322 1.66671 8.46989C1.66671 11.9366 4.53337 14.8032 8.00004 14.8032C11.4667 14.8032 14.3334 11.9366 14.3334 8.46989C14.3334 5.00322 11.4667 2.13656 8.00004 2.13656ZM8.00004 16.1366C3.80004 16.1366 0.333374 12.6699 0.333374 8.46989C0.333374 4.26989 3.80004 0.803223 8.00004 0.803223C12.2 0.803223 15.6667 4.26989 15.6667 8.46989C15.6667 12.6699 12.2 16.1366 8.00004 16.1366Z" fill="#AFB7C0"/>
<path id="Vector_2" fill-rule="evenodd" clip-rule="evenodd" d="M8.00008 2.13672C4.53341 2.13672 1.66675 5.00339 1.66675 8.47005C1.66675 11.9367 4.53341 14.8034 8.00008 14.8034C11.4667 14.8034 14.3334 11.9367 14.3334 8.47005C14.3334 5.00339 11.4667 2.13672 8.00008 2.13672Z" fill="white"/>
<path id="Vector_3" fill-rule="evenodd" clip-rule="evenodd" d="M4.86666 11.0699C4.66666 11.0699 4.46666 10.9365 4.33333 10.8032C4.13333 10.4699 4.19999 10.0699 4.53333 9.86986L7.66666 7.73652C7.99999 7.53652 8.39999 7.60319 8.59999 7.93652C8.79999 8.26986 8.73333 8.66986 8.39999 8.86986L5.26666 10.9365C5.13333 11.0699 4.99999 11.0699 4.86666 11.0699Z" fill="#EF4452"/>
<path id="Vector_4" fill-rule="evenodd" clip-rule="evenodd" d="M8.00004 9.00313C7.60004 9.00313 7.33337 8.73646 7.33337 8.33646V4.86979C7.33337 4.46979 7.60004 4.20312 8.00004 4.20312C8.40004 4.20312 8.66671 4.46979 8.66671 4.86979V8.33646C8.66671 8.66979 8.40004 9.00313 8.00004 9.00313Z" fill="#4E5968"/>
</g>
</g>
<defs>
<clipPath id="clip0_1_54">
<rect width="16" height="16" fill="white" transform="translate(0 0.469727)"/>
</clipPath>
</defs>
</svg>
