<svg width="16" height="17" viewBox="0 0 16 17" fill="none" xmlns="http://www.w3.org/2000/svg">
<g id="SVG" clip-path="url(#clip0_1_44)">
<path id="Vector" d="M7.73334 0.906689L1.93334 3.24002C1.66667 3.37336 1.46667 3.64002 1.46667 3.90669V9.44002C1.46667 11.9734 4.66668 14.44 7.66668 15.9734C7.86667 16.04 8.06667 16.04 8.26667 15.9734C11.2667 14.44 14.4667 11.9734 14.4667 9.44002V3.90669C14.4667 3.64002 14.3333 3.37336 14.0667 3.30669L8.26667 0.906689C8.06667 0.840023 7.86668 0.840023 7.73334 0.906689Z" fill="#007FF7"/>
<path id="Vector_2" d="M7.26671 10.9732C7.06671 10.9732 6.93337 10.9065 6.80004 10.7732L4.53337 8.50649C4.26671 8.23983 4.26671 7.83983 4.53337 7.57316C4.80004 7.30649 5.20004 7.30649 5.46671 7.57316L7.26671 9.37316L10.5334 6.10649C10.8 5.83983 11.2 5.83983 11.4667 6.10649C11.7334 6.37316 11.7334 6.77316 11.4667 7.03983L7.73337 10.7732C7.60004 10.9065 7.46671 10.9732 7.26671 10.9732Z" fill="white"/>
</g>
<defs>
<clipPath id="clip0_1_44">
<rect width="16" height="16" fill="white" transform="translate(0 0.439941)"/>
</clipPath>
</defs>
</svg>
