<svg width="61" height="61" viewBox="0 0 61 61" fill="none" xmlns="http://www.w3.org/2000/svg">
<g id="SVG">
<g id="Group">
<path id="Vector" fill-rule="evenodd" clip-rule="evenodd" d="M10.5901 51.5508V9.05078C10.5901 7.72578 11.1151 6.45078 12.0651 5.52578C13.0151 4.57578 14.2651 4.05078 15.5901 4.05078H45.5901C46.9151 4.05078 48.1901 4.57578 49.1151 5.52578C50.0651 6.47578 50.5901 7.72578 50.5901 9.05078V51.5508C50.5901 52.8758 50.0651 54.1508 49.1151 55.0758C48.1651 56.0258 46.9151 56.5508 45.5901 56.5508H15.5901C14.2651 56.5508 12.9901 56.0258 12.0651 55.0758C11.1151 54.1258 10.5901 52.8758 10.5901 51.5508Z" fill="#C370E0"/>
<path id="Vector_2" fill-rule="evenodd" clip-rule="evenodd" d="M26.8401 19.0508H34.3401V11.5508H26.8401V19.0508Z" fill="white"/>
<path id="Vector_3" fill-rule="evenodd" clip-rule="evenodd" d="M43.0901 57.8C45.0651 57.8 47.0151 57.4 48.8401 56.65C50.6651 55.9 52.3151 54.8 53.7151 53.4C55.1151 52 56.2151 50.35 56.9651 48.525C57.7151 46.7 58.1151 44.75 58.1151 42.775C58.1151 40.8 57.7151 38.85 56.9651 37.025C56.2151 35.2 55.1151 33.55 53.7151 32.15C52.3151 30.75 50.6651 29.65 48.8401 28.9C47.0151 28.15 45.0651 27.75 43.0901 27.75C39.1151 27.75 35.2901 29.325 32.4901 32.15C29.6651 34.975 28.0901 38.775 28.0901 42.75C28.0901 46.725 29.6651 50.55 32.4901 53.35C35.3151 56.175 39.1151 57.75 43.0901 57.75V57.8Z" fill="#2272E6"/>
<path id="Vector_4" fill-rule="evenodd" clip-rule="evenodd" d="M44.0401 35.025L45.9401 38.85C46.0151 39 46.1151 39.125 46.2651 39.225C46.3901 39.325 46.5651 39.4 46.7401 39.425L50.9651 40.05C51.8151 40.175 52.1651 41.225 51.5401 41.825L48.4901 44.8C48.4901 44.8 48.2651 45.075 48.2151 45.225C48.1651 45.375 48.1401 45.55 48.1901 45.725L48.9151 49.925C48.9401 50.125 48.9151 50.325 48.8401 50.5C48.7651 50.675 48.6401 50.825 48.4901 50.95C48.3401 51.075 48.1401 51.125 47.9401 51.15C47.7401 51.15 47.5401 51.125 47.3901 51.025L43.6151 49.05C43.4651 48.975 43.2901 48.925 43.1401 48.925C42.9901 48.925 42.8151 48.975 42.6651 49.05L38.8901 51.05C38.7151 51.15 38.5151 51.175 38.3401 51.175C38.1401 51.175 37.9651 51.1 37.7901 50.975C37.6401 50.85 37.5151 50.7 37.4401 50.525C37.3651 50.35 37.3401 50.15 37.3901 49.95L38.1151 45.75C38.1401 45.575 38.1151 45.4 38.0901 45.25C38.0401 45.1 37.9401 44.95 37.8151 44.825L34.7651 41.85C34.6151 41.725 34.5151 41.55 34.4901 41.35C34.4401 41.15 34.4401 40.95 34.4901 40.775C34.5401 40.6 34.6651 40.425 34.8151 40.3C34.9651 40.175 35.1401 40.1 35.3401 40.075L39.5651 39.45C39.7401 39.45 39.8901 39.35 40.0401 39.275C40.1651 39.175 40.2901 39.05 40.3651 38.9L42.2651 35.075C42.3401 34.9 42.4901 34.75 42.6401 34.65C42.7901 34.55 42.9901 34.5 43.1901 34.5C43.3901 34.5 43.5651 34.55 43.7401 34.65C43.9151 34.75 44.0401 34.9 44.1151 35.075L44.0401 35.025Z" fill="white"/>
</g>
</g>
</svg>
