<svg width="61" height="61" viewBox="0 0 61 61" fill="none" xmlns="http://www.w3.org/2000/svg">
<g id="SVG">
<g id="Group">
<path id="Vector" fill-rule="evenodd" clip-rule="evenodd" d="M50.5901 55.3047H10.5901C9.92705 55.3047 9.29116 55.0413 8.82232 54.5725C8.35348 54.1036 8.09009 53.4677 8.09009 52.8047V7.80469H53.0901V52.8047C53.0901 53.4677 52.8267 54.1036 52.3579 54.5725C51.889 55.0413 51.2531 55.3047 50.5901 55.3047Z" fill="#15C07E"/>
<path id="Vector_2" d="M8.09009 7.80469H53.0901" stroke="#4E5968" stroke-width="4.5" stroke-linecap="round"/>
<path id="Vector_3" d="M41.2101 23.3652L36.5901 40.1402C36.4501 40.6427 35.7376 40.6427 35.5976 40.1402L31.0826 23.7402C30.9451 23.2402 30.2301 23.2402 30.0926 23.7402L25.5776 40.1402C25.4401 40.6427 24.7251 40.6427 24.5876 40.1402L19.9701 23.3652M38.8476 31.9402H45.5926M22.3326 31.9402H15.5876" stroke="white" stroke-width="4" stroke-linecap="round" stroke-linejoin="round"/>
</g>
</g>
</svg>
