<svg width="30" height="31" viewBox="0 0 30 31" fill="none" xmlns="http://www.w3.org/2000/svg">
<g id="SVG" clip-path="url(#clip0_1_114)">
<g id="Group">
<path id="Vector" fill-rule="evenodd" clip-rule="evenodd" d="M4.375 23.2062H24.375V12.7725H4.375V23.2062Z" fill="#FFB131"/>
<path id="Vector_2" fill-rule="evenodd" clip-rule="evenodd" d="M2.5 26.7865H25V23.0365H2.5V26.7865ZM14.375 10.3652C13.8777 10.3652 13.4008 10.1677 13.0492 9.81606C12.6975 9.46443 12.5 8.98752 12.5 8.49023C12.5 7.99295 12.6975 7.51604 13.0492 7.16441C13.4008 6.81278 13.8777 6.61523 14.375 6.61523C14.8723 6.61523 15.3492 6.81278 15.7008 7.16441C16.0525 7.51604 16.25 7.99295 16.25 8.49023C16.25 8.98752 16.0525 9.46443 15.7008 9.81606C15.3492 10.1677 14.8723 10.3652 14.375 10.3652ZM25.615 7.96148L14.375 1.61523L3.135 7.96148C2.94238 8.07034 2.78211 8.22837 2.67055 8.41943C2.55898 8.61049 2.50013 8.82774 2.5 9.04898V13.3202H26.25V9.05023C26.2501 8.82877 26.1913 8.61127 26.0798 8.41997C25.9682 8.22867 25.8078 8.07044 25.615 7.96148Z" fill="#FFCF58"/>
<path id="Vector_3" fill-rule="evenodd" clip-rule="evenodd" d="M18.125 22.3252C18.125 20.6027 19.5263 19.2002 21.25 19.2002C22.9738 19.2002 24.375 20.6027 24.375 22.3252C24.375 24.0477 22.9738 25.4502 21.25 25.4502C20.4215 25.4492 19.6272 25.1196 19.0414 24.5338C18.4556 23.948 18.126 23.1537 18.125 22.3252ZM29.0088 28.3164L26.0013 25.3077C26.5689 24.4162 26.8719 23.382 26.875 22.3252C26.875 19.2252 24.3512 16.7002 21.25 16.7002C19.7587 16.7018 18.3289 17.295 17.2744 18.3495C16.2198 19.4041 15.6267 20.8339 15.625 22.3252C15.625 25.4264 18.1488 27.9502 21.25 27.9502C22.3488 27.9502 23.365 27.6214 24.2337 27.0752L27.2412 30.0839L29.0088 28.3164Z" fill="#4E5968"/>
</g>
</g>
<defs>
<clipPath id="clip0_1_114">
<rect width="30" height="30" fill="white" transform="translate(0 0.450195)"/>
</clipPath>
</defs>
</svg>
