<svg width="16" height="17" viewBox="0 0 16 17" fill="none" xmlns="http://www.w3.org/2000/svg">
<g id="SVG">
<path id="Vector" d="M10.48 7.11002L9.39995 11.0234C9.36662 11.1434 9.19995 11.1434 9.16662 11.0234L8.11329 7.19669C8.07995 7.07669 7.91329 7.07669 7.87995 7.19669L6.82662 11.0234C6.79329 11.1434 6.62662 11.1434 6.59329 11.0234L5.51329 7.11002M9.91995 9.11002H11.4933M6.06662 9.11002H4.49329" stroke="#007FF2" stroke-width="1.05333" stroke-linecap="round" stroke-linejoin="round"/>
<path id="Vector_2" d="M8.00001 4.20999C8.63698 4.20999 9.15335 3.69362 9.15335 3.05665C9.15335 2.41969 8.63698 1.90332 8.00001 1.90332C7.36304 1.90332 6.84668 2.41969 6.84668 3.05665C6.84668 3.69362 7.36304 4.20999 8.00001 4.20999Z" fill="#4D9CFF"/>
<path id="Vector_3" d="M2.92665 7.1365C3.56362 7.1365 4.07998 6.62014 4.07998 5.98317C4.07998 5.3462 3.56362 4.82983 2.92665 4.82983C2.28968 4.82983 1.77332 5.3462 1.77332 5.98317C1.77332 6.62014 2.28968 7.1365 2.92665 7.1365Z" fill="#74B6FF"/>
<path id="Vector_4" d="M2.92665 12.9966C3.56362 12.9966 4.07998 12.4802 4.07998 11.8433C4.07998 11.2063 3.56362 10.6899 2.92665 10.6899C2.28968 10.6899 1.77332 11.2063 1.77332 11.8433C1.77332 12.4802 2.28968 12.9966 2.92665 12.9966Z" fill="#007FF2"/>
<path id="Vector_5" d="M8.00001 15.9165C8.63698 15.9165 9.15335 15.4002 9.15335 14.7632C9.15335 14.1262 8.63698 13.6099 8.00001 13.6099C7.36304 13.6099 6.84668 14.1262 6.84668 14.7632C6.84668 15.4002 7.36304 15.9165 8.00001 15.9165Z" fill="#4D9CFF"/>
<path id="Vector_6" d="M13.0734 12.99C13.7103 12.99 14.2267 12.4737 14.2267 11.8367C14.2267 11.1997 13.7103 10.6833 13.0734 10.6833C12.4364 10.6833 11.92 11.1997 11.92 11.8367C11.92 12.4737 12.4364 12.99 13.0734 12.99Z" fill="#74B6FF"/>
<path id="Vector_7" d="M13.0734 7.12991C13.7103 7.12991 14.2267 6.61354 14.2267 5.97658C14.2267 5.33961 13.7103 4.82324 13.0734 4.82324C12.4364 4.82324 11.92 5.33961 11.92 5.97658C11.92 6.61354 12.4364 7.12991 13.0734 7.12991Z" fill="#007FF2"/>
</g>
</svg>
