<svg width="30" height="31" viewBox="0 0 30 31" fill="none" xmlns="http://www.w3.org/2000/svg">
<g id="SVG">
<g id="Group">
<path id="Vector" fill-rule="evenodd" clip-rule="evenodd" d="M5 26.375V5.125C5 4.4625 5.2625 3.825 5.7375 3.3625C6.2125 2.8875 6.8375 2.625 7.5 2.625H22.5C23.1625 2.625 23.8 2.8875 24.2625 3.3625C24.7375 3.8375 25 4.4625 25 5.125V26.375C25 27.0375 24.7375 27.675 24.2625 28.1375C23.7875 28.6125 23.1625 28.875 22.5 28.875H7.5C6.8375 28.875 6.2 28.6125 5.7375 28.1375C5.2625 27.6625 5 27.0375 5 26.375Z" fill="#C370E0"/>
<path id="Vector_2" fill-rule="evenodd" clip-rule="evenodd" d="M13.125 10.125H16.875V6.375H13.125V10.125Z" fill="white"/>
<path id="Vector_3" fill-rule="evenodd" clip-rule="evenodd" d="M21.25 29.4996C22.2375 29.4996 23.2125 29.2996 24.125 28.9246C25.0375 28.5496 25.8625 27.9996 26.5625 27.2996C27.2625 26.5996 27.8125 25.7746 28.1875 24.8621C28.5625 23.9496 28.7625 22.9746 28.7625 21.9871C28.7625 20.9996 28.5625 20.0246 28.1875 19.1121C27.8125 18.1996 27.2625 17.3746 26.5625 16.6746C25.8625 15.9746 25.0375 15.4246 24.125 15.0496C23.2125 14.6746 22.2375 14.4746 21.25 14.4746C19.2625 14.4746 17.35 15.2621 15.95 16.6746C14.5375 18.0871 13.75 19.9871 13.75 21.9746C13.75 23.9621 14.5375 25.8746 15.95 27.2746C17.3625 28.6871 19.2625 29.4746 21.25 29.4746V29.4996Z" fill="#2272E6"/>
<path id="Vector_4" fill-rule="evenodd" clip-rule="evenodd" d="M21.725 18.1121L22.675 20.0246C22.7125 20.0996 22.7625 20.1621 22.8375 20.2121C22.9 20.2621 22.9875 20.2996 23.075 20.3121L25.1875 20.6246C25.6125 20.6871 25.7875 21.2121 25.475 21.5121L23.95 22.9996C23.95 22.9996 23.8375 23.1371 23.8125 23.2121C23.7875 23.2871 23.775 23.3746 23.8 23.4621L24.1625 25.5621C24.175 25.6621 24.1625 25.7621 24.125 25.8496C24.0875 25.9371 24.025 26.0121 23.95 26.0746C23.875 26.1371 23.775 26.1621 23.675 26.1746C23.575 26.1746 23.475 26.1621 23.4 26.1121L21.5125 25.1246C21.4375 25.0871 21.35 25.0621 21.275 25.0621C21.2 25.0621 21.1125 25.0871 21.0375 25.1246L19.15 26.1246C19.0625 26.1746 18.9625 26.1871 18.875 26.1871C18.775 26.1871 18.6875 26.1496 18.6 26.0871C18.525 26.0246 18.4625 25.9496 18.425 25.8621C18.3875 25.7746 18.375 25.6746 18.4 25.5746L18.7625 23.4746C18.775 23.3871 18.7625 23.2996 18.75 23.2246C18.725 23.1496 18.675 23.0746 18.6125 23.0121L17.0875 21.5246C17.0125 21.4621 16.9625 21.3746 16.95 21.2746C16.925 21.1746 16.925 21.0746 16.95 20.9871C16.975 20.8996 17.0375 20.8121 17.1125 20.7496C17.1875 20.6871 17.275 20.6496 17.375 20.6371L19.4875 20.3246C19.575 20.3246 19.65 20.2746 19.725 20.2371C19.7875 20.1871 19.85 20.1246 19.8875 20.0496L20.8375 18.1371C20.875 18.0496 20.95 17.9746 21.025 17.9246C21.1 17.8746 21.2 17.8496 21.3 17.8496C21.4 17.8496 21.4875 17.8746 21.575 17.9246C21.6625 17.9746 21.725 18.0496 21.7625 18.1371L21.725 18.1121Z" fill="white"/>
</g>
</g>
</svg>
