<svg width="30" height="31" viewBox="0 0 30 31" fill="none" xmlns="http://www.w3.org/2000/svg">
<g id="SVG">
<g id="Group">
<path id="Vector" fill-rule="evenodd" clip-rule="evenodd" d="M25 28.1484H5C4.66848 28.1484 4.35054 28.0167 4.11612 27.7823C3.8817 27.5479 3.75 27.23 3.75 26.8984V4.39844H26.25V26.8984C26.25 27.23 26.1183 27.5479 25.8839 27.7823C25.6495 28.0167 25.3315 28.1484 25 28.1484Z" fill="#15C07E"/>
<path id="Vector_2" d="M3.75 4.39844H26.25" stroke="#4E5968" stroke-width="2.25" stroke-linecap="round"/>
<path id="Vector_3" d="M20.31 12.1787L18 20.5662C17.93 20.8175 17.5738 20.8175 17.5038 20.5662L15.2463 12.3662C15.1775 12.1162 14.82 12.1162 14.7513 12.3662L12.4938 20.5662C12.425 20.8175 12.0675 20.8175 11.9988 20.5662L9.69003 12.1787M19.1288 16.4662H22.5013M10.8713 16.4662H7.49878" stroke="white" stroke-width="2" stroke-linecap="round" stroke-linejoin="round"/>
</g>
</g>
</svg>
