<svg width="25" height="25" viewBox="0 0 25 25" fill="none" xmlns="http://www.w3.org/2000/svg">
<g id="SVG">
<path id="Vector" d="M16.3101 9.63977L14.6901 15.5098C14.6401 15.6898 14.3901 15.6898 14.3401 15.5098L12.7601 9.76977C12.7101 9.58977 12.4601 9.58977 12.4101 9.76977L10.8301 15.5098C10.7801 15.6898 10.5301 15.6898 10.4801 15.5098L8.86008 9.63977M15.4701 12.6398H17.8301M9.69008 12.6398H7.33008" stroke="#007FF2" stroke-width="1.58" stroke-linecap="round" stroke-linejoin="round"/>
<path id="Vector_2" d="M12.5901 5.29008C13.5456 5.29008 14.3201 4.51553 14.3201 3.56008C14.3201 2.60463 13.5456 1.83008 12.5901 1.83008C11.6347 1.83008 10.8601 2.60463 10.8601 3.56008C10.8601 4.51553 11.6347 5.29008 12.5901 5.29008Z" fill="#4D9CFF"/>
<path id="Vector_3" d="M4.98 9.67973C5.93545 9.67973 6.71 8.90518 6.71 7.94973C6.71 6.99427 5.93545 6.21973 4.98 6.21973C4.02455 6.21973 3.25 6.99427 3.25 7.94973C3.25 8.90518 4.02455 9.67973 4.98 9.67973Z" fill="#74B6FF"/>
<path id="Vector_4" d="M4.98 18.4698C5.93545 18.4698 6.71 17.6952 6.71 16.7398C6.71 15.7843 5.93545 15.0098 4.98 15.0098C4.02455 15.0098 3.25 15.7843 3.25 16.7398C3.25 17.6952 4.02455 18.4698 4.98 18.4698Z" fill="#007FF2"/>
<path id="Vector_5" d="M12.5901 22.8496C13.5456 22.8496 14.3201 22.0751 14.3201 21.1196C14.3201 20.1642 13.5456 19.3896 12.5901 19.3896C11.6347 19.3896 10.8601 20.1642 10.8601 21.1196C10.8601 22.0751 11.6347 22.8496 12.5901 22.8496Z" fill="#4D9CFF"/>
<path id="Vector_6" d="M20.2 18.46C21.1554 18.46 21.93 17.6855 21.93 16.73C21.93 15.7745 21.1554 15 20.2 15C19.2445 15 18.47 15.7745 18.47 16.73C18.47 17.6855 19.2445 18.46 20.2 18.46Z" fill="#74B6FF"/>
<path id="Vector_7" d="M20.2 9.66996C21.1554 9.66996 21.93 8.89541 21.93 7.93996C21.93 6.98451 21.1554 6.20996 20.2 6.20996C19.2445 6.20996 18.47 6.98451 18.47 7.93996C18.47 8.89541 19.2445 9.66996 20.2 9.66996Z" fill="#007FF2"/>
</g>
</svg>
