<svg width="61" height="61" viewBox="0 0 61 61" fill="none" xmlns="http://www.w3.org/2000/svg">
<g id="SVG">
<g id="Group">
<path id="Vector" fill-rule="evenodd" clip-rule="evenodd" d="M9.34009 45.8128H49.3401V24.9453H9.34009V45.8128Z" fill="#FFB131"/>
<path id="Vector_2" fill-rule="evenodd" clip-rule="evenodd" d="M5.59009 52.9734H50.5901V45.4734H5.59009V52.9734ZM29.3401 20.1309C28.3455 20.1309 27.3917 19.7358 26.6884 19.0325C25.9852 18.3292 25.5901 17.3754 25.5901 16.3809C25.5901 15.3863 25.9852 14.4325 26.6884 13.7292C27.3917 13.0259 28.3455 12.6309 29.3401 12.6309C30.3347 12.6309 31.2885 13.0259 31.9917 13.7292C32.695 14.4325 33.0901 15.3863 33.0901 16.3809C33.0901 17.3754 32.695 18.3292 31.9917 19.0325C31.2885 19.7358 30.3347 20.1309 29.3401 20.1309ZM51.8201 15.3234L29.3401 2.63086L6.86009 15.3234C6.47485 15.5411 6.1543 15.8571 5.93118 16.2392C5.70806 16.6214 5.59035 17.0559 5.59009 17.4984V26.0409H53.0901V17.5009C53.0903 17.0579 52.9728 16.6229 52.7496 16.2403C52.5265 15.8577 52.2057 15.5413 51.8201 15.3234Z" fill="#FFCF58"/>
<path id="Vector_3" fill-rule="evenodd" clip-rule="evenodd" d="M36.8401 44.0508C36.8401 40.6058 39.6426 37.8008 43.0901 37.8008C46.5376 37.8008 49.3401 40.6058 49.3401 44.0508C49.3401 47.4958 46.5376 50.3008 43.0901 50.3008C41.4331 50.2988 39.8445 49.6397 38.6729 48.468C37.5012 47.2963 36.8421 45.7078 36.8401 44.0508ZM58.6076 56.0333L52.5926 50.0158C53.7278 48.2329 54.3338 46.1644 54.3401 44.0508C54.3401 37.8508 49.2926 32.8008 43.0901 32.8008C40.1074 32.8041 37.2479 33.9904 35.1388 36.0995C33.0297 38.2086 31.8434 41.0681 31.8401 44.0508C31.8401 50.2533 36.8876 55.3008 43.0901 55.3008C45.2876 55.3008 47.3201 54.6433 49.0576 53.5508L55.0726 59.5683L58.6076 56.0333Z" fill="#4E5968"/>
</g>
</g>
</svg>
