<svg width="25" height="25" viewBox="0 0 25 25" fill="none" xmlns="http://www.w3.org/2000/svg">
<g id="SVG" clip-path="url(#clip0_1_287)">
<g id="Group">
<path id="Vector" fill-rule="evenodd" clip-rule="evenodd" d="M12.5901 3.41016C7.39009 3.41016 3.09009 7.71016 3.09009 12.9102C3.09009 18.1102 7.39009 22.4102 12.5901 22.4102C17.7901 22.4102 22.0901 18.1102 22.0901 12.9102C22.0901 7.71016 17.7901 3.41016 12.5901 3.41016ZM12.5901 24.4102C6.29009 24.4102 1.09009 19.2102 1.09009 12.9102C1.09009 6.61016 6.29009 1.41016 12.5901 1.41016C18.8901 1.41016 24.0901 6.61016 24.0901 12.9102C24.0901 19.2102 18.8901 24.4102 12.5901 24.4102Z" fill="#AFB7C0"/>
<path id="Vector_2" fill-rule="evenodd" clip-rule="evenodd" d="M12.5901 3.41016C7.39009 3.41016 3.09009 7.71016 3.09009 12.9102C3.09009 18.1102 7.39009 22.4102 12.5901 22.4102C17.7901 22.4102 22.0901 18.1102 22.0901 12.9102C22.0901 7.71016 17.7901 3.41016 12.5901 3.41016Z" fill="white"/>
<path id="Vector_3" fill-rule="evenodd" clip-rule="evenodd" d="M7.89014 16.8104C7.59014 16.8104 7.29014 16.6104 7.09014 16.4104C6.79014 15.9104 6.89014 15.3104 7.39014 15.0104L12.0901 11.8104C12.5901 11.5104 13.1901 11.6104 13.4901 12.1104C13.7901 12.6104 13.6901 13.2104 13.1901 13.5104L8.49014 16.6104C8.29014 16.8104 8.09014 16.8104 7.89014 16.8104Z" fill="#EF4452"/>
<path id="Vector_4" fill-rule="evenodd" clip-rule="evenodd" d="M12.5901 13.7103C11.9901 13.7103 11.5901 13.3103 11.5901 12.7103V7.51025C11.5901 6.91025 11.9901 6.51025 12.5901 6.51025C13.1901 6.51025 13.5901 6.91025 13.5901 7.51025V12.7103C13.5901 13.2103 13.1901 13.7103 12.5901 13.7103Z" fill="#4E5968"/>
</g>
</g>
<defs>
<clipPath id="clip0_1_287">
<rect width="24" height="24" fill="white" transform="translate(0.590088 0.910156)"/>
</clipPath>
</defs>
</svg>
